<?xml version="1.0" encoding="utf-8"?>
<svg width="204.102" height="77.637" viewBox="0 0 204.102 77.637" xmlns="http://www.w3.org/2000/svg">
  <path style="fill: rgb(216, 216, 216); stroke: rgb(0, 0, 0);" d="M 36.507 4.792 C 31.648 4.792 26.493 5.356 21.425 5.356 C 18.278 5.356 14.328 4.678 11.276 5.356 C 9.922 5.657 8.42 5.474 7.048 5.779 C 6.3 5.945 5.048 6.766 4.37 6.766 C 14.337 20.056 10.705 38.88 6.343 53.422 C 5.182 57.292 3.59 60.869 2.114 64.557 C 1.644 65.733 1.51 67.075 1.128 68.222 C 1.082 68.358 1.233 68.963 1.128 69.068 C 0.926 69.27 1.272 68.222 0.987 68.222"/>
  <path style="fill: rgb(216, 216, 216); stroke: rgb(0, 0, 0);" d="M 12.122 32.42 C 15.961 30.5 21.122 31.479 25.231 30.305 C 25.916 30.11 28.095 30.542 28.614 30.023"/>
  <path style="fill: rgb(216, 216, 216); stroke: rgb(0, 0, 0);" d="M 63.711 4.792 C 61.948 3.911 59.458 4.229 57.509 4.229 C 53.058 4.229 48.532 5.5 44.964 8.175 C 43.938 8.946 42.807 11.387 42.145 12.545 C 41.388 13.87 41.784 15.4 41.441 16.774 C 41.154 17.919 40.884 19.625 41.159 20.861 C 42.546 27.105 49.708 32.795 55.959 33.688 C 58.047 33.986 60.338 34.111 62.443 34.111 C 63.322 34.111 64.118 34.252 64.98 34.252 C 65.309 34.252 66.296 34.252 65.967 34.252 C 55.378 34.252 44.06 32.746 35.098 39.467 C 32.083 41.728 30.348 47.227 31.433 51.026 C 31.823 52.392 32.574 53.548 33.124 54.831 C 33.577 55.888 34.241 57.549 35.239 58.214 C 40.401 61.655 46.225 64.932 52.435 65.967 C 54.938 66.384 58.833 65.967 60.892 65.967"/>
  <path style="fill: rgb(216, 216, 216); stroke: rgb(0, 0, 0);" d="M 109.099 7.612 C 106.426 6.275 102.097 6.625 99.232 6.625 C 95.05 6.625 90.869 6.625 86.687 6.625 C 84.322 6.625 81.457 6.229 79.216 7.189 C 77.721 7.829 76.698 8.931 75.411 9.867 C 72.732 11.815 69.611 13.292 69.209 16.915 C 68.802 20.571 70.582 22.657 73.014 25.09 C 77.659 29.735 83.644 32.117 89.929 33.688 C 92.352 34.294 95.051 34.456 97.4 35.239 C 97.959 35.425 99.693 35.802 100.219 35.802 C 100.691 35.802 102.1 35.943 101.628 35.943 C 95.286 35.943 88.642 37.048 82.881 39.608 C 81.192 40.359 78.848 40.974 77.807 42.709 C 76.252 45.301 75.237 47.615 74.424 50.462 C 73.686 53.045 72.834 57.707 74.706 60.047 C 79.057 65.486 85.984 65.403 92.325 66.671 C 96.331 67.473 99.563 68.927 103.602 68.927"/>
  <path style="fill: rgb(216, 216, 216); stroke: rgb(0, 0, 0);" d="M 119.952 7.33 C 120.427 8.279 121.775 8.581 122.771 8.88 C 125.364 9.658 128.135 9.951 130.806 10.149 C 135.931 10.528 141.039 10.552 146.17 10.853 C 148.416 10.986 152.633 10.491 154.768 11.558 C 156.397 12.373 159.734 11.135 161.252 11.135"/>
  <path style="fill: rgb(216, 216, 216); stroke: rgb(0, 0, 0);" d="M 136.444 10.29 C 137.561 15.876 137.149 21.744 137.149 27.486 C 137.149 32.752 137.869 38.832 136.726 43.978 C 136.256 46.09 136.759 48.374 136.162 50.462 C 135.442 52.983 135.839 55.992 134.893 58.355 C 134.538 59.243 135.04 60.739 134.611 61.597 C 133.839 63.142 133.343 65.946 133.343 67.517 C 133.343 68.133 132.996 70.618 132.497 70.618"/>
</svg>